<?xml version="1.0" encoding="UTF-8" standalone="no"?>
<!-- Creator: CorelDRAW 2019 (64-Bit) -->

<svg
   xml:space="preserve"
   width="1100"
   height="1080"
   version="1.1"
   style="clip-rule:evenodd;fill-rule:evenodd;image-rendering:optimizeQuality;shape-rendering:geometricPrecision;text-rendering:geometricPrecision"
   viewBox="0 0 1100 1079.97"
   id="svg9"
   sodipodi:docname="Dana.svg"
   inkscape:version="1.3.2 (091e20e, 2023-11-25, custom)"
   xmlns:inkscape="http://www.inkscape.org/namespaces/inkscape"
   xmlns:sodipodi="http://sodipodi.sourceforge.net/DTD/sodipodi-0.dtd"
   xmlns="http://www.w3.org/2000/svg"
   xmlns:svg="http://www.w3.org/2000/svg"><sodipodi:namedview
   id="namedview9"
   pagecolor="#ffffff"
   bordercolor="#000000"
   borderopacity="0.25"
   inkscape:showpageshadow="2"
   inkscape:pageopacity="0.0"
   inkscape:pagecheckerboard="0"
   inkscape:deskcolor="#d1d1d1"
   inkscape:zoom="0.47573167"
   inkscape:cx="600.12822"
   inkscape:cy="682.10721"
   inkscape:window-width="1366"
   inkscape:window-height="745"
   inkscape:window-x="-8"
   inkscape:window-y="-8"
   inkscape:window-maximized="1"
   inkscape:current-layer="Layer_x0020_1" />
 <defs
   id="defs1">
  <style
   type="text/css"
   id="style1">
   <![CDATA[
    .fil0 {fill:#108DE8}
    .fil2 {fill:#79BBE7}
    .fil1 {fill:white}
   ]]>
  </style>
 </defs>
 <g
   id="Layer_x0020_1"
   inkscape:label="Layer 1"
   inkscape:groupmode="layer">
  <metadata
   id="CorelCorpID_0Corel-Layer" />
  <path
   id="path2"
   class="fil0"
   d="M 545.39062 0.156875 C 535.2619 0.41820286 525.16226 1.0108603 515.13477 1.9596094 C 336.54494 18.849592 191.81397 113.40991 103.91406 259.36977 C 46.794124 354.20967 19.944618 466.56965 28.224609 581.87953 C 48.484589 863.97925 290.91515 1102.8191 601.21484 1078.2291 C 879.62457 1056.1592 1109.3347 805.71024 1085.8047 497.67055 C 1077.1847 384.89066 1037.9842 291.94031 975.1543 208.01039 C 946.70433 170.01043 941.09474 169.38989 911.38477 138.27992 C 874.5448 99.68996 796.63401 55.389668 746.91406 35.789688 C 688.57787 12.785961 616.29167 -1.67242 545.39062 0.156875 z M 742.61328 326.77016 C 778.8008 327.6254 814.60504 337.60026 849.77344 362.10023 C 869.72342 375.99022 867.03344 385.41089 867.02344 415.49086 L 866.95508 695.11977 C 864.57508 711.02975 854.43351 701.17953 846.10352 696.37953 C 666.4437 592.71963 487.53333 802.23002 306.85352 740.44008 C 238.61358 717.1001 247.22461 703.47996 247.22461 659.86 C 247.22461 619.54004 243.19485 402.16975 249.96484 382.61977 C 266.43483 381.42977 291.43475 412.23032 351.80469 420.18031 C 479.24987 436.96936 613.37214 323.71572 742.61328 326.77016 z " />
  
  
  
  
  
  
  
  
 </g>
</svg>
