<?xml version="1.0" encoding="UTF-8" standalone="no"?>
<svg
   id="Layer_1"
   data-name="Layer 1"
   viewBox="0 0 300 300"
   version="1.1"
   sodipodi:docname="65e38a5c3b18b-SeaBank.svg"
   width="300"
   height="300"
   inkscape:version="1.3.2 (091e20e, 2023-11-25, custom)"
   xmlns:inkscape="http://www.inkscape.org/namespaces/inkscape"
   xmlns:sodipodi="http://sodipodi.sourceforge.net/DTD/sodipodi-0.dtd"
   xmlns="http://www.w3.org/2000/svg"
   xmlns:svg="http://www.w3.org/2000/svg">
  <sodipodi:namedview
     id="namedview4"
     pagecolor="#ffffff"
     bordercolor="#000000"
     borderopacity="0.25"
     inkscape:showpageshadow="2"
     inkscape:pageopacity="0.0"
     inkscape:pagecheckerboard="0"
     inkscape:deskcolor="#d1d1d1"
     inkscape:zoom="0.81726657"
     inkscape:cx="247.77717"
     inkscape:cy="154.78426"
     inkscape:window-width="1366"
     inkscape:window-height="745"
     inkscape:window-x="-8"
     inkscape:window-y="-8"
     inkscape:window-maximized="1"
     inkscape:current-layer="Layer_1" />
  <defs
     id="defs1">
    <style
       id="style1">
      .cls-1 {
        fill: #2673dd;
      }

      .cls-1, .cls-2 {
        fill-rule: evenodd;
      }

      .cls-2 {
        fill: #ea5f00;
      }
    </style>
  </defs>
  <path
     class="cls-2"
     d="m 147.86916,3.8912386 c -74.189998,0 -134.329998,60.1500004 -134.329998,134.1900014 -0.05,28.3 8.91,55.89 25.56,78.77 5.78,-2.76 11.76,-5.08 17.88,-6.95 -15.67,-19.65 -24.98,-44.63 -24.98,-71.67 0,-63.690001 51.87,-115.560001 115.559998,-115.560001 63.69,0 115.56,51.87 115.56,115.560001 0,40.79 -21.28,76.85 -53.5,97.39 3.1,0 6.21,0 9.46,-0.15 10.49,-0.59 20.4,-5.32 28.82,-9.16 21.28,-23.8 34.28,-53.65 34.28,-88.23 0,-74.030001 -60.15,-134.1800014 -134.33,-134.1800014 z"
     id="path1" />
  <path
     class="cls-1"
     d="m 232.98916,271.68124 c -7.54,2.51 -14.92,3.99 -22.02,4.14 -30,1.18 -51.58,-7.83 -72.27,-16.7 -18.48,-7.83 -35.77,-15.22 -57.039998,-14.04 -20.1,1.63 -34.14,12.86 -34.73,13.3 -4.14,3.25 -4.73,9.31 -1.48,13.45 3.25,4.14 9.46,4.88 13.6,1.63 0.15,0 10.19,-7.98 24.09,-9.02 16.26,-0.74 31.189998,5.32 48.179998,12.71 19.36,8.27 40.94,17.44 69.75,18.32 3.55,0.15 7.09,0 10.79,-0.15 9.02,-0.29 18.32,-2.07 27.63,-5.17 5.01,-1.78 7.69,-7.21 6.06,-12.27 -1.92,-5.32 -7.54,-7.98 -12.56,-6.21 z"
     id="path2" />
  <path
     class="cls-1"
     d="m 263.87916,228.36124 c -9.16,6.35 -27.63,17.14 -48.77,17.88 -26.9,1.18 -44.48,-6.65 -63.25,-14.63 -19.66,-8.57 -40.05,-17.44 -70.639998,-16.11 -28.37,1.03 -52.46,17.29 -64.29,26.75 -4.28,3.41 -4.98,9.64 -1.57,13.92 0.03,0.04 0.06,0.08 0.1,0.12 3.41,4.28 9.64,4.98 13.92,1.57 0.04,-0.03 0.08,-0.06 0.12,-0.1 9.9,-7.98 29.85,-21.57 52.46,-22.46 26.159998,-1.04 43.449998,6.5 61.769998,14.48 18.03,7.83 36.5,15.96 63.1,16.4 2.96,0 5.91,0 9.02,-0.15 26.15,-1.04 48.32,-13.89 59.4,-21.43 4.58,-3.1 5.62,-9.31 2.51,-13.89 -3.1,-4.44 -9.46,-5.62 -13.89,-2.36 v 0 z"
     id="path3" />
  <path
     class="cls-2"
     d="m 155.40916,221.73124 0.29,0.15 c 11.68,4.73 22.91,9.31 36.06,11.82 36.5,-16.7 61.92,-53.5 61.92,-96.21 0.15,-58.230001 -47.44,-105.660001 -105.66,-105.660001 -58.219998,0 -105.959998,47.44 -105.959998,105.660001 -0.03,25.57 9.27,50.27 26.16,69.46 3.25,-0.59 6.5,-0.89 9.9,-1.18 33.689998,-1.92 56.899998,7.54 77.289998,15.96 z m 7.54,-71.23 c -1.92,-1.92 -4.17,-3.48 -6.65,-4.58 -2.65,-1.33 -5.61,-2.37 -8.71,-3.4 -3.02,-0.97 -5.98,-2.1 -8.87,-3.4 -6.21,-2.36 -11.38,-5.91 -15.66,-10.94 -4.29,-4.88 -6.21,-11.08 -6.21,-18.62 0.15,-4.88 1.19,-9.16 2.96,-12.860001 1.92,-3.69 4.44,-6.8 7.69,-9.16 3.25,-2.36 6.8,-4.29 10.79,-5.47 4.13,-1.2 8.41,-1.8 12.71,-1.77 h 0.3 c 6.8,0.15 12.86,1.48 17.88,3.84 5,2.5 9.75,5.47 14.19,8.87 l -10.49,15.070001 c -2.96,-2.22 -6.21,-3.99 -9.46,-5.47 -3.4,-1.48 -7.54,-2.36 -12.41,-2.660001 -3.7,-0.29 -7.1,0.440001 -9.9,2.220001 -2.96,1.63 -4.44,4.14 -4.44,7.39 0,1.92 0.44,3.7 1.48,5.17 1.04,1.48 2.51,2.81 4.29,3.84 1.77,1.18 3.69,1.92 5.61,2.81 1.92,0.74 3.99,1.48 5.77,2.22 3.84,1.33 7.69,2.95 11.52,4.87 3.72,1.88 7.2,4.21 10.35,6.95 3.1,2.66 5.47,5.91 7.39,9.6 1.77,3.7 2.66,7.98 2.52,13.01 -0.15,4.88 -1.19,9.31 -2.96,13 -1.92,3.84 -4.58,6.94 -7.83,9.6 -3.4,2.66 -7.24,4.58 -11.67,5.91 -4.44,1.33 -9.31,1.92 -14.48,1.77 -4.88,-0.15 -9.31,-0.74 -13.3,-2.07 -3.99,-1.33 -7.69,-2.81 -10.94,-4.58 -2.92,-1.56 -5.69,-3.39 -8.27,-5.46 -2.36,-1.63 -3.99,-3.1 -5.02,-4.29 l 10.79,-15.22 c 3.68,3.5 7.92,6.35 12.56,8.42 4.88,2.36 9.9,3.54 15.07,3.54 4.44,0.15 8.13,-0.89 11.38,-2.81 3.25,-1.92 4.73,-4.88 4.88,-8.57 0,-2.81 -0.89,-5.02 -2.81,-6.8 v 0 z m 222.41,-13.46 c -3.1,-2.81 -6.5,-5.02 -10.35,-7.09 -3.84,-1.92 -7.68,-3.69 -11.67,-5.02 -1.93,-0.74 -3.85,-1.48 -5.91,-2.22 -2.03,-0.69 -3.96,-1.64 -5.76,-2.81 -1.77,-1.04 -3.1,-2.36 -4.29,-3.84 -1.06,-1.52 -1.63,-3.32 -1.62,-5.17 0.15,-3.25 1.63,-5.76 4.44,-7.39 2.95,-1.63 6.21,-2.36 10.04,-2.07 4.88,0.3 9.16,1.19 12.56,2.66 3.4,1.63 6.65,3.4 9.6,5.62 l 10.64,-15.070001 c -4.44,-3.55 -9.31,-6.5 -14.33,-9.02 -5.02,-2.51 -11.09,-3.69 -17.88,-3.84 h -0.29 c -4.44,-0.15 -8.72,0.44 -12.86,1.77 -4.14,1.33 -7.69,3.1 -10.94,5.47 -3.25,2.36 -5.76,5.47 -7.69,9.16 -1.92,3.700001 -2.96,8.130001 -3.1,13.010001 -0.15,7.54 1.92,13.74 6.21,18.62 4.24,4.88 9.62,8.64 15.67,10.94 2.81,1.19 5.76,2.36 9.02,3.25 3.1,1.03 6.06,2.22 8.72,3.54 2.66,1.33 4.88,2.81 6.65,4.73 1.77,1.92 2.8,4.14 2.65,6.94 -0.15,3.7 -1.77,6.65 -4.87,8.57 -3.1,1.92 -6.95,2.96 -11.38,2.81 -5.26,-0.16 -10.44,-1.36 -15.23,-3.55 -4.88,-2.36 -9.16,-5.17 -12.71,-8.42 l -10.94,15.22 c 1.04,1.04 2.81,2.66 5.03,4.58 2.58,2.07 5.35,3.91 8.27,5.47 3.25,1.77 6.94,3.25 10.94,4.58 4.14,1.33 8.57,1.92 13.45,2.07 5.17,0.15 10.04,-0.44 14.48,-1.77 4.44,-1.33 8.42,-3.25 11.82,-5.91 3.36,-2.61 6.09,-5.95 7.98,-9.75 1.92,-3.84 2.96,-8.28 3.1,-13.15 0.15,-5.02 -0.74,-9.46 -2.66,-13.15 -1.33,-3.84 -3.69,-7.09 -6.8,-9.75 z m 267.93,-3.98 c 0.89,-0.89 1.92,-2.07 2.81,-3.1 1.03,-1.18 1.92,-2.51 2.66,-4.29 0.89,-1.77 1.48,-3.69 2.07,-6.06 0.44,-2.36 0.74,-5.17 0.74,-8.57 0,-3.28 -0.6,-6.54 -1.77,-9.6 -1.15,-3.090001 -2.85,-5.940001 -5.02,-8.420001 -2.22,-2.51 -4.73,-4.73 -7.83,-6.5 -3.22,-1.85 -6.8,-3.01 -10.49,-3.4 -2.51,-0.29 -5.32,-0.59 -8.27,-0.59 -3.1,-0.15 -6.21,-0.15 -9.75,-0.15 l -28.67,0.15 V 190.71124 h 39.6 c 3.69,0 6.5,0 8.87,-0.15 3.99,-0.44 7.69,-1.33 11.23,-2.81 3.4,-1.48 6.65,-3.54 9.16,-6.21 2.66,-2.66 4.73,-5.91 6.35,-9.46 1.57,-3.95 2.38,-8.16 2.36,-12.41 0,-7.24 -1.48,-13 -4.29,-17.29 -2.81,-4.44 -6.06,-7.54 -9.75,-9.31 v 0 z m -45.52,-32.07 h 9.31 c 3.1,0 5.91,0 8.28,0.15 2.36,0.15 4.58,0.3 6.21,0.44 3.69,0.44 6.65,1.63 8.87,3.55 2.36,1.77 3.54,4.44 3.4,7.69 0.15,4.14 -1.18,7.24 -3.4,9.02 -2.37,1.77 -5.32,2.96 -9.02,3.4 -1.77,0.3 -3.84,0.44 -6.21,0.44 h -17.58 v -24.68 h 0.15 z m 37.24,65.91 c -2.66,2.51 -6.95,3.99 -12.86,4.29 -1.77,0.15 -3.99,0.29 -6.94,0.15 h -17.58 v -27.93 h 9.01 c 2.81,0 5.47,0 7.98,-0.15 2.51,-0.15 4.73,-0.15 6.5,0 5.76,0.29 10.05,1.63 13.15,3.99 3.1,2.36 4.73,5.62 4.73,9.9 0.15,3.99 -1.19,7.24 -3.99,9.75 z m -161.38,-34.44 c -2.07,-5.61 -5.02,-10.49 -8.87,-14.33 -3.69,-3.99 -8.13,-6.94 -13.15,-9.02 -5.01,-2.08 -10.39,-3.13 -15.81,-3.1 -6.79,0 -12.86,1.18 -18.03,3.25 -5.32,2.22 -9.75,5.32 -13.3,9.16 -3.55,3.84 -6.21,8.28 -8.13,13.3 -1.77,5.02 -2.66,10.49 -2.66,16.25 0,6.35 1.18,12.12 3.4,17.44 2.16,5.03 5.27,9.6 9.16,13.45 3.84,3.72 8.36,6.68 13.3,8.72 5.02,1.92 10.34,2.96 15.96,2.96 5.17,0 9.75,-0.44 13.6,-1.33 3.53,-0.66 7,-1.65 10.34,-2.96 2.84,-1.28 5.56,-2.82 8.13,-4.58 2.37,-1.63 4.58,-3.25 6.8,-4.88 l -9.6,-13.45 c -1.33,1.04 -2.66,2.07 -4.29,3.25 -1.77,1.18 -3.99,2.22 -6.35,3.25 -2.36,0.88 -5.02,1.63 -8.13,2.22 -2.96,0.44 -6.35,0.74 -10.05,0.59 -2.08,-0.17 -4.16,-0.47 -6.21,-0.89 -2.19,-0.58 -4.28,-1.48 -6.21,-2.66 -1.94,-1.37 -3.73,-2.96 -5.32,-4.73 -1.63,-1.92 -2.81,-4.29 -3.55,-7.1 l -0.15,-0.74 h 61.63 l 0.15,-4.73 c 0.29,-7.39 -0.59,-13.75 -2.66,-19.36 z m -59.71,7.83 0.15,-0.59 c 0.29,-2.36 1.03,-3.55 1.77,-5.17 l 0.44,-0.89 c 1.26,-2.12 2.92,-3.97 4.88,-5.47 1.93,-1.47 4.15,-2.53 6.5,-3.1 2.51,-0.74 5.02,-1.19 7.54,-1.19 5.91,0.15 10.79,1.77 14.33,5.03 1.77,1.48 3.25,2.96 4.43,4.58 1.19,1.63 1.92,3.54 2.22,6.06 l 0.15,0.74 c 0,0 -42.42,0 -42.42,0 z m 132.56,-26.01 -1.18,-1.03 c -2.51,-2.22 -5.77,-3.99 -9.46,-5.17 -3.55,-1.33 -7.83,-2.07 -12.71,-2.07 -5.47,0 -10.64,1.04 -15.37,3.11 -4.67,1.91 -8.86,4.84 -12.27,8.57 -3.55,3.69 -6.21,8.28 -8.28,13.6 -1.92,5.17 -2.96,11.08 -2.96,17.58 0,5.77 1.04,11.23 2.96,16.26 2.07,5.02 4.73,9.31 8.28,13.15 3.53,3.7 7.68,6.75 12.27,9.02 4.73,2.06 9.75,3.1 15.37,3.1 4.88,0 9.16,-0.59 12.71,-1.92 3.69,-1.33 6.95,-3.25 9.46,-5.61 l 1.18,-1.18 v 8.57 h 19.06 v -81.87 h -19.06 v 5.91 z m -1.77,44.33 c -1.18,2.81 -2.81,5.32 -4.73,7.24 -1.92,1.92 -4.14,3.25 -6.65,4.29 -2.52,0.88 -5.16,1.33 -7.83,1.33 -6.06,0 -11.08,-2.07 -15.22,-6.06 -4.14,-4.29 -6.06,-9.9 -6.06,-16.85 0,-6.95 2.07,-12.42 6.06,-16.85 4.14,-4.44 9.16,-6.65 15.22,-6.65 2.81,0 5.47,0.59 7.83,1.63 2.66,1.03 4.88,2.51 6.65,4.58 1.92,1.92 3.55,4.44 4.73,7.54 1.18,2.96 1.77,6.21 1.77,10.05 0,3.55 -0.59,6.8 -1.77,9.75 z m 180.44,-44.33 -1.18,-1.03 c -2.51,-2.22 -5.76,-3.99 -9.46,-5.17 -3.54,-1.33 -7.83,-2.07 -12.71,-2.07 -5.47,0 -10.64,1.04 -15.37,3.11 -4.67,1.91 -8.86,4.84 -12.27,8.57 -3.55,3.69 -6.21,8.28 -8.27,13.6 -1.92,5.17 -2.96,11.08 -2.96,17.58 0,5.77 1.03,11.23 2.96,16.26 2.07,5.02 4.73,9.31 8.27,13.15 3.53,3.7 7.68,6.75 12.27,9.02 4.73,2.06 9.75,3.1 15.37,3.1 4.88,0 9.16,-0.59 12.71,-1.92 3.7,-1.33 6.95,-3.25 9.46,-5.61 l 1.18,-1.18 v 8.57 h 19.06 v -81.43 h -19.06 v 5.47 z m -1.77,44.33 c -1.18,2.81 -2.81,5.32 -4.73,7.24 -1.92,1.92 -4.14,3.25 -6.65,4.29 -2.52,0.88 -5.16,1.33 -7.83,1.33 -6.06,0 -11.08,-2.07 -15.22,-6.06 -4.14,-4.29 -6.06,-9.9 -6.06,-16.85 0,-6.95 2.07,-12.42 6.06,-16.85 4.14,-4.44 9.16,-6.65 15.22,-6.65 2.81,0 5.32,0.59 7.83,1.63 2.66,1.03 4.88,2.51 6.65,4.58 1.92,1.92 3.54,4.44 4.73,7.54 1.19,2.96 1.77,6.21 1.77,10.05 0,3.55 -0.59,6.8 -1.77,9.75 z m 160.05,-14.48 34.73,-37.98 h -25.12 l -28.67,31.18 V 81.171239 h -19.21 V 190.53124 h 19.21 v -24.82 l 6.35,-7.1 24.83,31.92 h 23.79 z m -55.42,-19.07 c -1.77,-5.02 -5.17,-9.46 -10.05,-13.15 -4.88,-3.7 -11.08,-5.62 -18.47,-5.62 -3.84,0 -7.83,0.59 -11.82,1.77 -3.49,1.05 -6.75,2.75 -9.6,5.02 v -4.29 h -19.36 v 81.73 h 19.36 v -43.74 c 0.15,-2.96 0.44,-5.76 0.74,-8.42 0.44,-2.81 1.18,-5.17 2.36,-7.24 1.18,-2.07 2.96,-3.69 5.17,-5.02 2.21,-1.33 5.02,-2.07 8.42,-2.22 4.29,-0.15 7.69,1.04 10.35,3.25 2.66,2.36 4.43,5.32 5.32,9.16 0.44,1.77 0.74,4.14 1.04,7.09 0.15,2.81 0.29,6.94 0.29,12.42 v 34.73 h 19.06 v -39.45 c 0.02,-4.63 -0.12,-9.27 -0.44,-13.89 -0.27,-4.12 -1.07,-8.2 -2.37,-12.12 v 0 z"
     id="path4"
     inkscape:label="path4" />
</svg>
