<svg width="394" height="153" viewBox="0 0 394 153" fill="none" xmlns="http://www.w3.org/2000/svg">
<path d="M392.5 3.5C393.328 3.5 394 2.82843 394 2C394 1.17157 393.328 0.5 392.5 0.5V3.5ZM91.5 2V0.5H90.5305L90.1323 1.38394L91.5 2ZM33.5 113C33.5 117.418 37.0817 121 41.5 121C45.9183 121 49.5 117.418 49.5 113C49.5 108.582 45.9183 105 41.5 105C37.0817 105 33.5 108.582 33.5 113ZM392.5 2V0.5H91.5V2V3.5H392.5V2ZM91.5 2L90.1323 1.38394L40.1323 112.384L41.5 113L42.8677 113.616L92.8677 2.61606L91.5 2Z" fill="url(#paint0_linear_11_2)"/>
<g filter="url(#filter0_f_11_2)">
<ellipse cx="41.5" cy="112.5" rx="10.5" ry="9.5" fill="#00D4FF"/>
</g>
<defs>
<filter id="filter0_f_11_2" x="0.200001" y="72.2" width="82.6" height="80.6" filterUnits="userSpaceOnUse" color-interpolation-filters="sRGB">
<feFlood flood-opacity="0" result="BackgroundImageFix"/>
<feBlend mode="normal" in="SourceGraphic" in2="BackgroundImageFix" result="shape"/>
<feGaussianBlur stdDeviation="15.4" result="effect1_foregroundBlur_11_2"/>
</filter>
<linearGradient id="paint0_linear_11_2" x1="41.5" y1="57.5" x2="392.5" y2="57.5" gradientUnits="userSpaceOnUse">
<stop offset="0.506583" stop-color="white"/>
<stop offset="1" stop-color="#999999" stop-opacity="0.5"/>
</linearGradient>
</defs>
</svg>
