<svg width="294" height="104" viewBox="0 0 294 104" fill="none" xmlns="http://www.w3.org/2000/svg">
<path d="M1.5 0.5C0.671573 0.5 0 1.17157 0 2C0 2.82843 0.671573 3.5 1.5 3.5V0.5ZM198 2L199.123 1.00515L198.675 0.5H198V2ZM244.5 63.5C244.5 67.9183 248.082 71.5 252.5 71.5C256.918 71.5 260.5 67.9183 260.5 63.5C260.5 59.0817 256.918 55.5 252.5 55.5C248.082 55.5 244.5 59.0817 244.5 63.5ZM1.5 2V3.5H198V2V0.5H1.5V2ZM198 2L196.877 2.99485L251.377 64.4948L252.5 63.5L253.623 62.5052L199.123 1.00515L198 2Z" fill="url(#paint0_linear_11_2)"/>
<g filter="url(#filter0_f_11_2)">
<ellipse cx="252.5" cy="63.5" rx="10.5" ry="9.5" fill="#00D4FF"/>
</g>
<defs>
<filter id="filter0_f_11_2" x="211.2" y="23.2" width="82.6" height="80.6" filterUnits="userSpaceOnUse" color-interpolation-filters="sRGB">
<feFlood flood-opacity="0" result="BackgroundImageFix"/>
<feBlend mode="normal" in="SourceGraphic" in2="BackgroundImageFix" result="shape"/>
<feGaussianBlur stdDeviation="15.4" result="effect1_foregroundBlur_11_2"/>
</filter>
<linearGradient id="paint0_linear_11_2" x1="1.5" y1="32.75" x2="252.5" y2="32.75" gradientUnits="userSpaceOnUse">
<stop stop-color="#999999" stop-opacity="0.42"/>
<stop offset="1" stop-color="white"/>
</linearGradient>
</defs>
</svg>
