<svg width="102" height="102" viewBox="0 0 102 102" fill="none" xmlns="http://www.w3.org/2000/svg">
<path d="M60.7327 73.4824L55.2502 79.0074V55.2499C55.2502 54.1228 54.8024 53.0418 54.0054 52.2447C53.2084 51.4477 52.1274 50.9999 51.0002 50.9999C49.873 50.9999 48.792 51.4477 47.995 52.2447C47.198 53.0418 46.7502 54.1228 46.7502 55.2499V79.0074L41.2677 73.4824C40.8714 73.0862 40.401 72.7718 39.8833 72.5574C39.3655 72.3429 38.8106 72.2325 38.2502 72.2325C37.6898 72.2325 37.1349 72.3429 36.6171 72.5574C36.0994 72.7718 35.629 73.0862 35.2327 73.4824C34.8364 73.8787 34.5221 74.3491 34.3076 74.8669C34.0932 75.3846 33.9828 75.9395 33.9828 76.4999C33.9828 77.0603 34.0932 77.6152 34.3076 78.133C34.5221 78.6507 34.8364 79.1212 35.2327 79.5174L47.9827 92.2674C48.3869 92.6544 48.8635 92.9577 49.3852 93.1599C49.8939 93.3848 50.444 93.5009 51.0002 93.5009C51.5564 93.5009 52.1065 93.3848 52.6152 93.1599C53.1369 92.9577 53.6135 92.6544 54.0177 92.2674L66.7677 79.5174C67.568 78.7171 68.0176 77.6317 68.0176 76.4999C68.0176 75.3681 67.568 74.2827 66.7677 73.4824C65.9674 72.6821 64.882 72.2325 63.7502 72.2325C62.6184 72.2325 61.533 72.6821 60.7327 73.4824ZM78.2852 26.4349C75.6884 20.4679 71.2068 15.517 65.527 12.3408C59.8472 9.16452 53.2827 7.93821 46.8393 8.84973C40.3959 9.76126 34.4291 12.7603 29.8533 17.3874C25.2774 22.0145 22.345 28.0143 21.5052 34.4674C17.4532 35.4378 13.8986 37.8625 11.5166 41.281C9.13453 44.6995 8.09086 48.8738 8.58378 53.0111C9.07669 57.1484 11.0719 60.9606 14.1904 63.7238C17.3089 66.487 21.3336 68.0087 25.5002 67.9999C26.6274 67.9999 27.7084 67.5522 28.5054 66.7551C29.3024 65.9581 29.7502 64.8771 29.7502 63.7499C29.7502 62.6228 29.3024 61.5418 28.5054 60.7447C27.7084 59.9477 26.6274 59.4999 25.5002 59.4999C23.2459 59.4999 21.0839 58.6044 19.4898 57.0103C17.8957 55.4163 17.0002 53.2543 17.0002 50.9999C17.0002 48.7456 17.8957 46.5836 19.4898 44.9895C21.0839 43.3955 23.2459 42.4999 25.5002 42.4999C26.6274 42.4999 27.7084 42.0522 28.5054 41.2551C29.3024 40.4581 29.7502 39.3771 29.7502 38.2499C29.7611 33.2234 31.5534 28.3634 34.8088 24.5334C38.0643 20.7034 42.572 18.1515 47.5311 17.3309C52.4903 16.5103 57.5798 17.4742 61.8954 20.0515C66.211 22.6287 69.4733 26.6523 71.1027 31.4074C71.3456 32.1377 71.7823 32.7884 72.3662 33.2899C72.95 33.7914 73.6591 34.1249 74.4177 34.2549C77.2485 34.7899 79.8147 36.2677 81.6981 38.4477C83.5815 40.6277 84.6711 43.3812 84.7894 46.2596C84.9077 49.1381 84.0477 51.9718 82.3495 54.2989C80.6513 56.6261 78.215 58.3095 75.4377 59.0749C74.8963 59.2145 74.3877 59.4593 73.941 59.7953C73.4942 60.1314 73.118 60.5522 72.8338 61.0337C72.5497 61.5151 72.3632 62.0479 72.2849 62.6014C72.2066 63.155 72.2382 63.7186 72.3777 64.2599C72.5172 64.8013 72.762 65.3099 73.0981 65.7567C73.4342 66.2034 73.855 66.5796 74.3364 66.8638C74.8179 67.1479 75.3506 67.3345 75.9042 67.4127C76.4578 67.491 77.0213 67.4595 77.5627 67.3199C82.0353 66.1381 86.0001 63.5289 88.855 59.8887C91.7098 56.2484 93.2988 51.776 93.3805 47.1506C93.4622 42.5251 92.0323 37.9994 89.3079 34.2605C86.5834 30.5217 82.7133 27.7741 78.2852 26.4349Z" fill="black"/>
</svg>
